HIERARCHY
ROOT Hips
{
  OFFSET 196.326 95.9168 97.7182
  CHANNELS 6 Xposition Yposition Zposition Zrotation Xrotation Yrotation
  JOINT LeftUpLeg
  {
    OFFSET 8.64259 1.95398 -2.38835
    CHANNELS 3 Zrotation Xrotation Yrotation
    JOINT LeftLeg
    {
      OFFSET 43.7702 0 0
      CHANNELS 3 Zrotation Xrotation Yrotation
      JOINT LeftFoot
      {
        OFFSET 40.6238 0 0
        CHANNELS 3 Zrotation Xrotation Yrotation
        JOINT LeftToeBase
        {
          OFFSET 12.7242 0 0
          CHANNELS 3 Zrotation Xrotation Yrotation
          End Site
          {
            OFFSET 0 0 0
          }
        }
      }
    }
  }
  JOINT RightUpLeg
  {
    OFFSET -8.2249 1.95398 -2.59336
    CHANNELS 3 Zrotation Xrotation Yrotation
    JOINT RightLeg
    {
      OFFSET 43.5653 0 0
      CHANNELS 3 Zrotation Xrotation Yrotation
      JOINT RightFoot
      {
        OFFSET 40.6238 0 0
        CHANNELS 3 Zrotation Xrotation Yrotation
        JOINT RightToeBase
        {
          OFFSET 12.7242 0 0
          CHANNELS 3 Zrotation Xrotation Yrotation
          End Site
          {
            OFFSET 0 0 0
          }
        }
      }
    }
  }
  JOINT Spine
  {
    OFFSET 0.165834 0.87714 6.61349
    CHANNELS 3 Zrotation Xrotation Yrotation
    JOINT Spine1
    {
      OFFSET 7.38963 1.71661e-005 0
      CHANNELS 3 Zrotation Xrotation Yrotation
      JOINT Spine2
      {
        OFFSET 11.9445 1.14441e-005 0
        CHANNELS 3 Zrotation Xrotation Yrotation
        JOINT Spine3
        {
          OFFSET 14.7254 4.19617e-005 0
          CHANNELS 3 Zrotation Xrotation Yrotation
          JOINT Spine4
          {
            OFFSET 10.9679 0 0
            CHANNELS 3 Zrotation Xrotation Yrotation
            JOINT RightShoulder
            {
              OFFSET 2.46616 -1.6653 3.69651
              CHANNELS 3 Zrotation Xrotation Yrotation
              JOINT RightArm
              {
                OFFSET 13.0012 0 0
                CHANNELS 3 Zrotation Xrotation Yrotation
                JOINT RightForeArm
                {
                  OFFSET 28.7848 1.52588e-005 0
                  CHANNELS 3 Zrotation Xrotation Yrotation
                  JOINT RightHand
                  {
                    OFFSET 26.5688 1.52588e-005 0
                    CHANNELS 3 Zrotation Xrotation Yrotation
                    End Site
                    {
                      OFFSET 0 0 0
                    }
                  }
                }
              }
            }
            JOINT LeftShoulder
            {
              OFFSET 2.38034 -1.29275 -3.75231
              CHANNELS 3 Zrotation Xrotation Yrotation
              JOINT LeftArm
              {
                OFFSET 16.3182 6.10351e-005 0
                CHANNELS 3 Zrotation Xrotation Yrotation
                JOINT LeftForeArm
                {
                  OFFSET 27.0901 0 0
                  CHANNELS 3 Zrotation Xrotation Yrotation
                  JOINT LeftHand
                  {
                    OFFSET 24.5451 1.52588e-005 0
                    CHANNELS 3 Zrotation Xrotation Yrotation
                    End Site
                    {
                      OFFSET 0 0 0
                    }
                  }
                }
              }
            }
            JOINT Neck
            {
              OFFSET 5.0226 -0.0266342 0
              CHANNELS 3 Zrotation Xrotation Yrotation
              JOINT Head
              {
                OFFSET 6.69363 2.86102e-005 0
                CHANNELS 3 Zrotation Xrotation Yrotation
                End Site
                {
                  OFFSET 0 0 0
                }
              }
            }
          }
        }
      }
    }
  }
}
MOTION
Frames:	12
Frame Time:	0.0416667
-141.984 96.0139 -193.113 81.6792 -52.8281 84.6193 -173.557 9.0988 87.9846 -14.042 11.5401 -0.522479 65.7122 13.0428 16.737 46.562 14.8438 -25.7682 -178.719 18.7701 93.9354 -20.4819 6.27426 -1.03634 64.7278 -2.06298 -1.1235 27.5853 -1.61971 20.667 -0.0758912 7.01887 -90.0395 12.8361 -0.169564 -0.0586844 1.16515 -0.171994 -0.0511736 -21.3701 -0.144089 -0.106944 -1.35741 -0.144093 -0.106943 81.991 -48.9621 -113.323 27.6299 -6.90263 5.27332 -6.67842 -12.1818 -42.0098 -3.76983 -0.422897 5.65684 -102.703 -41.6891 56.4739 -29.5271 10.7934 1.3626 4.85882 9.40951 -35.8323 10.5186 1.02424 5.47353 15.2441 -3.40709 2.29122 -10.957 -3.94905 0.539134 
-142.364 96.0736 -194.097 82.1664 -52.8522 85.2012 -173.764 9.54885 87.9699 -14.4369 13.9237 -0.617893 65.1521 13.3377 18.4709 45.8873 14.925 -22.063 -178.558 20.2747 94.2998 -25.2776 4.90209 -1.41204 65.0165 -2.25402 -1.22845 37.0375 0.712789 18.5938 -0.146338 6.97429 -90.0468 12.9252 -0.312962 -0.0557501 1.25434 -0.315118 -0.0419366 -21.2811 -0.281735 -0.147221 -1.26841 -0.281753 -0.147239 80.8045 -50.9288 -114.345 25.7154 -7.50601 4.87325 -9.68749 -15.2438 -41.2299 -3.88344 -0.4351 4.36953 -103.191 -41.876 55.8106 -28.6893 11.9431 1.13118 4.47822 11.9664 -32.9065 8.89882 0.59836 2.63131 13.3129 -3.65785 3.23684 -9.46866 -4.36268 -0.881705 
-141.999 95.9251 -194.129 83.0576 -52.1891 85.4495 -173.821 9.31785 87.2992 -15.6705 13.6687 -0.677276 66.9114 14.7941 18.8943 42.8697 12.7509 -21.3633 -178.492 17.5535 93.6008 -24.5663 1.56244 -2.03309 64.3007 -2.2199 -1.22561 40.3072 1.37572 18.1749 -0.197438 6.95542 -90.0078 12.9632 -0.39577 0.0321968 1.29231 -0.393972 0.0495754 -21.2433 -0.387159 -0.0882436 -1.23067 -0.387137 -0.088239 80.494 -51.3676 -114.633 25.6852 -8.60159 5.51862 -8.48096 -14.8531 -40.8786 -1.65511 -0.277046 4.45082 -102.63 -41.8228 56.6513 -29.1237 12.3838 1.83759 4.28983 12.2233 -32.7515 8.5927 0.634153 3.17269 13.0277 -3.39819 2.87981 -9.35656 -4.02746 -0.346281 
-141.297 95.8924 -193.387 82.1345 -51.2566 84.106 -173.994 8.56752 86.5525 -14.5048 13.532 -0.755993 68.0202 16.3819 19.069 41.4631 12.1306 -16.9396 -178.44 15.4273 93.0034 -21.3628 1.6975 -2.45079 67.9384 -3.08592 -1.65188 41.0729 1.5726 17.9255 -0.161665 6.79314 -89.9577 13.2877 -0.300431 0.122347 1.61678 -0.294745 0.135442 -20.9186 -0.323323 0.026392 -0.90599 -0.323314 0.0263919 80.6089 -52.3377 -114.1 25.3553 -9.52972 6.01919 -9.26092 -17.3991 -39.5443 -3.13886 -0.38755 3.81243 -102.35 -42.2533 57.2841 -29.3617 12.1398 2.14042 3.54898 11.9688 -30.9261 9.73489 0.744952 3.49092 12.8482 -2.96826 2.11384 -9.56486 -3.43419 0.558784 
-140.381 95.9059 -193.001 82.9729 -51.5195 84.9069 -174.237 7.26579 86.3376 -14.2383 13.3871 -0.505583 67.8847 16.8818 19.6508 41.1542 11.8293 -17.3803 -178.638 14.2269 92.9357 -21.408 1.72277 -2.47861 68.9786 -3.28574 -1.73589 39.6333 1.20635 16.3582 -0.0619859 6.8265 -90.0295 13.2208 -0.137159 -0.0418289 1.54989 -0.138877 -0.035756 -20.9853 -0.118257 -0.0811189 -0.972655 -0.118259 -0.0811235 80.8666 -51.3319 -114.102 26.4943 -9.09797 6.56742 -9.01579 -16.5104 -38.9659 -2.56628 -0.357803 4.75271 -102.215 -42.5509 57.6287 -30.505 11.1879 2.2216 3.94385 12.7681 -29.6808 9.8532 0.668889 2.71217 12.6298 -1.77755 1.74881 -9.86377 -2.21519 1.75777 
-139.398 95.6716 -192.63 82.8516 -50.2337 85.2293 -174.48 7.35705 86.4132 -14.9605 14.0258 -0.265346 68.2068 16.9603 18.9524 39.0077 10.04 -18.1192 -178.709 14.5802 93.0843 -22.8546 5.16045 -2.45204 68.9531 -3.29546 -1.73368 40.5229 1.54914 20.5608 -0.153244 6.88088 -90.0914 13.1118 -0.348062 -0.139703 1.44091 -0.353889 -0.124257 -21.0945 -0.290019 -0.237864 -1.08182 -0.289991 -0.237859 81.0827 -51.2093 -113.832 26.2534 -8.28526 7.28329 -8.33013 -14.5802 -41.0639 -2.04385 -0.296985 4.29134 -102.842 -42.3624 56.5785 -30.5511 12.4903 2.75344 3.27618 10.6615 -31.8904 9.59613 0.741635 3.54762 12.0816 -0.479802 0.521708 -8.05273 -0.623627 2.41772 
-138.362 95.155 -192.161 81.9433 -50.3478 84.3887 -174.532 7.99185 85.9864 -16.3897 13.7388 -0.387096 68.5745 17.3932 19.1722 39.3789 9.69463 -28.1398 -178.598 18.5915 93.1362 -30.048 5.98132 -2.75363 67.5638 -3.17023 -1.6986 45.7579 2.43356 15.823 -0.101702 6.91317 -90.0442 13.0479 -0.223121 -0.0614419 1.37702 -0.225597 -0.0515697 -21.1583 -0.194336 -0.125654 -1.14563 -0.194334 -0.125664 81.039 -51.098 -113.937 26.6717 -7.88427 8.35939 -11.3864 -16.1393 -43.2372 -4.17845 -0.434433 2.90511 -102.526 -41.888 56.8421 -29.8228 13.3126 2.11753 5.24532 11.2967 -36.9 7.41399 0.529368 2.86043 11.2769 0.219196 -0.514336 -7.26455 0.320145 3.0782 
-137.001 94.8701 -191.276 79.3068 -50.743 82.1755 -174.143 8.24009 85.7452 -15.6566 12.9936 -0.910274 69.3715 17.6467 18.4455 38.9663 8.85941 -38.726 -179.021 26.273 93.0749 -38.6376 5.93308 -2.23712 66.1056 -2.99772 -1.64804 50.0821 2.71717 11.2152 -0.0686572 6.86359 -90.0037 13.1462 -0.137951 0.0105074 1.4753 -0.137331 0.0165683 -21.0599 -0.134727 -0.0314343 -1.04731 -0.134731 -0.0314358 80.9275 -50.9367 -114.162 27.0363 -7.90361 9.23639 -9.68881 -13.4871 -43.3782 -4.07954 -0.438237 4.40552 -102.438 -41.7278 56.9028 -28.1054 12.3318 1.31346 6.43957 8.22834 -43.199 7.28185 0.593207 3.70912 11.0229 0.940063 -0.739017 -6.62919 1.09439 3.17388 
-135.167 95.08 -189.766 79.2131 -48.8521 83.2113 -174.164 5.86933 86.6308 -12.8442 16.0798 -0.712302 67.5589 17.0614 19.4724 45.5788 12.3473 -39.5451 -179.585 30.484 93.6611 -35.45 9.02654 -0.750225 67.6604 -3.03114 -1.62653 48.0468 2.82281 15.1582 -0.335995 7.02713 -90.1864 12.8188 -0.756402 -0.282203 1.14799 -0.768113 -0.248643 -21.3883 -0.636625 -0.496501 -1.3756 -0.636635 -0.496501 80.9822 -50.5632 -114.223 27.4248 -8.04801 10.242 -10.5753 -15.1191 -42.6908 -4.21284 -0.445095 3.77636 -102.697 -41.0311 56.1681 -25.6786 11.3038 -1.79294 7.23692 6.8875 -46.4095 7.28752 0.553632 3.24222 11.6961 1.72373 -0.617835 -5.7936 1.86175 3.8227 
-133.063 94.5778 -187.394 79.2057 -48.3604 83.4535 -173.79 3.48399 87.0254 -12.0992 16.6663 -0.69336 68.2698 18.7523 20.4194 48.8515 15.3071 -32.1497 -179.168 34.1346 93.3307 -29.0755 8.63362 0.107013 68.475 -2.74506 -1.457 46.1854 2.22331 12.5662 -0.440247 7.25283 -90.2358 12.3669 -0.986814 -0.358733 0.696317 -1.00165 -0.31496 -21.8407 -0.833392 -0.638743 -1.82807 -0.833371 -0.63874 80.0696 -51.6867 -115.129 26.1741 -7.82727 11.3011 -9.69484 -15.2006 -41.1555 -4.59703 -0.459619 3.48613 -102.789 -40.3246 55.681 -22.1395 10.9223 -5.57312 6.16268 4.56251 -48.3642 6.53955 0.521967 3.47707 12.5451 2.00982 -1.46103 -4.24213 2.42224 4.66671 
-130.072 93.4073 -183.908 79.1678 -47.3689 83.5227 -173.763 1.71301 87.1238 -14.3247 17.989 -0.286827 68.2834 20.7186 23.4451 52.8714 17.642 -32.9304 -178.206 37.1348 92.6675 -24.88 11.4998 0.0195967 70.0273 -2.99341 -1.57782 47.9101 2.82091 15.4259 -0.583069 7.38638 -90.2929 12.0988 -1.29748 -0.441483 0.428482 -1.31565 -0.383946 -22.1101 -1.1048 -0.811051 -2.09745 -1.10482 -0.811058 80.1415 -52.22 -114.821 25.8437 -7.31351 11.7001 -8.03699 -15.147 -37.9743 -2.9969 -0.359106 3.9499 -103.257 -40.0293 54.8035 -19.855 10.6362 -7.43306 5.74264 4.22925 -48.2931 8.02946 0.570493 2.89428 12.4314 2.13426 -1.90302 -3.13783 2.71728 5.28046 
-126.035 92.1459 -178.793 79.8981 -46.0522 84.4671 -174.175 -0.651869 88.0978 -19.1085 23.1092 0.660126 63.707 18.1635 27.8043 64.363 25.1633 -31.5602 -177.804 37.6809 92.7581 -26.1978 10.4199 -0.459541 70.5068 -3.1124 -1.62268 48.9465 2.96894 14.9053 -0.782842 7.46332 -90.3828 11.943 -1.73689 -0.57601 0.273089 -1.76057 -0.498983 -22.2682 -1.48348 -1.07146 -2.25557 -1.48349 -1.07147 79.6577 -53.0841 -115.187 24.9513 -7.34962 12.0311 -5.97091 -15.1142 -34.7297 -1.93581 -0.290248 4.02854 -103.822 -39.8583 53.8335 -19.9017 10.8783 -7.15299 5.01622 5.13962 -44.56 9.26839 0.598052 2.40449 12.7624 2.25107 -2.37307 -2.96389 2.9836 5.9557 
